<svg width="20" height="20" viewBox="0 0 20 20" fill="none" xmlns="http://www.w3.org/2000/svg">
<path fill-rule="evenodd" clip-rule="evenodd" d="M2.8383 0.400482H6.0831C7.4367 0.400482 8.5215 1.50448 8.5215 2.85904V6.13168C8.5215 7.49488 7.4367 8.58928 6.0831 8.58928H2.8383C1.4943 8.58928 0.399902 7.49488 0.399902 6.13168V2.85904C0.399902 1.50448 1.4943 0.400482 2.8383 0.400482ZM2.8383 11.4114H6.0831C7.4367 11.4114 8.5215 12.5068 8.5215 13.87V17.1426C8.5215 18.4962 7.4367 19.6002 6.0831 19.6002H2.8383C1.4943 19.6002 0.399902 18.4962 0.399902 17.1426V13.87C0.399902 12.5068 1.4943 11.4114 2.8383 11.4114ZM17.1616 0.400482H13.9168C12.5632 0.400482 11.4784 1.50448 11.4784 2.85904V6.13168C11.4784 7.49488 12.5632 8.58928 13.9168 8.58928H17.1616C18.5056 8.58928 19.6 7.49488 19.6 6.13168V2.85904C19.6 1.50448 18.5056 0.400482 17.1616 0.400482ZM13.9168 11.4114H17.1616C18.5056 11.4114 19.6 12.5068 19.6 13.87V17.1426C19.6 18.4962 18.5056 19.6002 17.1616 19.6002H13.9168C12.5632 19.6002 11.4784 18.4962 11.4784 17.1426V13.87C11.4784 12.5068 12.5632 11.4114 13.9168 11.4114Z" fill="white"/>
</svg>
