<svg width="15" height="14" viewBox="0 0 15 14" fill="none" xmlns="http://www.w3.org/2000/svg">
<path d="M7.50197 13.8C3.74197 13.8 0.701965 10.76 0.701965 7.00001C0.701965 3.24001 3.74197 0.200012 7.50197 0.200012C11.262 0.200012 14.302 3.24001 14.302 7.00001C14.302 10.76 11.262 13.8 7.50197 13.8ZM7.50197 1.00001C4.18197 1.00001 1.50197 3.68001 1.50197 7.00001C1.50197 10.32 4.18197 13 7.50197 13C10.822 13 13.502 10.32 13.502 7.00001C13.502 3.68001 10.822 1.00001 7.50197 1.00001Z" fill="black"/>
<path d="M5.42154 4.8422C5.54154 4.5222 5.66154 4.2822 5.90154 4.0822C6.10154 3.8822 6.34154 3.7222 6.66154 3.6022C6.98154 3.4822 7.30154 3.4422 7.66154 3.4422C7.94154 3.4422 8.22154 3.4822 8.46154 3.5622C8.70154 3.6422 8.94154 3.7622 9.14154 3.9222C9.34154 4.0822 9.50154 4.2822 9.58154 4.5222C9.70154 4.7622 9.74154 5.0422 9.74154 5.3222C9.74154 5.7222 9.66154 6.0422 9.50154 6.3222C9.34154 6.6022 9.10154 6.8422 8.86154 7.1222L8.34154 7.6422C8.22154 7.7622 8.10154 7.8822 8.06154 8.0022C7.98154 8.1222 7.94154 8.2822 7.94154 8.4422C7.90154 8.6022 7.90154 8.7222 7.90154 9.0422H7.26154C7.26154 8.7222 7.26154 8.6022 7.30154 8.3622C7.34154 8.1622 7.42154 7.9622 7.50154 7.7622C7.58154 7.6022 7.70154 7.4422 7.86154 7.2822C8.02154 7.1222 8.22154 6.9622 8.42154 6.7222C8.62154 6.5222 8.78154 6.3222 8.90154 6.1222C9.02154 5.9222 9.10154 5.6422 9.10154 5.4022C9.10154 5.2022 9.06154 5.0022 8.98154 4.8422C8.90154 4.6822 8.78154 4.5222 8.66154 4.4022C8.54154 4.2822 8.38154 4.2022 8.18154 4.1222C7.98154 4.0422 7.82154 4.0022 7.62154 4.0022C7.34154 4.0022 7.10154 4.0422 6.90154 4.1622C6.70154 4.2422 6.50154 4.4022 6.38154 4.5622C6.26154 4.7222 6.14154 4.9222 6.06154 5.1622C5.98154 5.4022 5.90154 5.5222 5.90154 5.8022H5.26154C5.26154 5.4422 5.30154 5.1622 5.42154 4.8422ZM7.90154 9.8022V10.6022H7.10154V9.8022H7.90154Z" fill="black"/>
</svg>
