<svg width="10" height="6" viewBox="0 0 10 6" fill="none" xmlns="http://www.w3.org/2000/svg">
<path fill-rule="evenodd" clip-rule="evenodd" d="M1.02931 0.904308C1.05834 0.875206 1.09282 0.852117 1.13079 0.836363C1.16875 0.820609 1.20945 0.8125 1.25056 0.8125C1.29166 0.8125 1.33236 0.820609 1.37033 0.836363C1.4083 0.852117 1.44278 0.875206 1.47181 0.904308L5.00056 4.43368L8.52931 0.904308C8.55836 0.875253 8.59286 0.852206 8.63082 0.836481C8.66878 0.820757 8.70947 0.812664 8.75056 0.812664C8.79165 0.812664 8.83234 0.820757 8.8703 0.836481C8.90826 0.852206 8.94275 0.875253 8.97181 0.904308C9.00086 0.933363 9.02391 0.967857 9.03964 1.00582C9.05536 1.04378 9.06345 1.08447 9.06345 1.12556C9.06345 1.16665 9.05536 1.20734 9.03964 1.2453C9.02391 1.28326 9.00086 1.31775 8.97181 1.34681L5.22181 5.09681C5.19278 5.12591 5.1583 5.149 5.12033 5.16475C5.08236 5.18051 5.04166 5.18862 5.00056 5.18862C4.95945 5.18862 4.91875 5.18051 4.88079 5.16475C4.84282 5.149 4.80834 5.12591 4.77931 5.09681L1.02931 1.34681C1.00021 1.31778 0.977117 1.2833 0.961363 1.24533C0.945609 1.20736 0.9375 1.16666 0.9375 1.12556C0.9375 1.08445 0.945609 1.04375 0.961363 1.00579C0.977117 0.967822 1.00021 0.933337 1.02931 0.904308Z" fill="#0B252D"/>
</svg>
