<svg width="19" height="12" viewBox="0 0 19 12" fill="none" xmlns="http://www.w3.org/2000/svg">
    <path fill-rule="evenodd" clip-rule="evenodd"
        d="M18.25 6C18.25 5.83424 18.1842 5.67526 18.0669 5.55805C17.9497 5.44084 17.7908 5.375 17.625 5.375H2.88375L6.8175 1.4425C6.87561 1.38439 6.92171 1.3154 6.95316 1.23948C6.98461 1.16355 7.00079 1.08218 7.00079 0.999996C7.00079 0.917816 6.98461 0.836441 6.95316 0.760517C6.92171 0.684592 6.87561 0.615606 6.8175 0.557496C6.75939 0.499386 6.69041 0.453291 6.61448 0.421842C6.53856 0.390393 6.45718 0.374207 6.375 0.374207C6.29282 0.374207 6.21145 0.390393 6.13552 0.421842C6.0596 0.453291 5.99061 0.499386 5.9325 0.557496L0.932503 5.5575C0.874299 5.61555 0.828121 5.68452 0.796613 5.76045C0.765105 5.83639 0.748886 5.91779 0.748886 6C0.748886 6.0822 0.765105 6.16361 0.796613 6.23954C0.828121 6.31547 0.874299 6.38444 0.932503 6.4425L5.9325 11.4425C5.99061 11.5006 6.0596 11.5467 6.13552 11.5781C6.21145 11.6096 6.29282 11.6258 6.375 11.6258C6.45718 11.6258 6.53856 11.6096 6.61448 11.5781C6.69041 11.5467 6.75939 11.5006 6.8175 11.4425C6.87561 11.3844 6.92171 11.3154 6.95316 11.2395C6.98461 11.1636 7.00079 11.0822 7.00079 11C7.00079 10.9178 6.98461 10.8364 6.95316 10.7605C6.92171 10.6846 6.87561 10.6156 6.8175 10.5575L2.88375 6.625H17.625C17.7908 6.625 17.9497 6.55915 18.0669 6.44194C18.1842 6.32473 18.25 6.16576 18.25 6Z"
        fill="black" />
</svg>
